<?xml version="1.0" encoding="UTF-8"?>
<svg id="Layer_1" data-name="Layer 1" xmlns="http://www.w3.org/2000/svg" viewBox="0 0 2400 800">
  <defs>
    <style>
      .cls-1 {
        fill: #fff;
      }
    </style>
  </defs>
  <g>
    <path class="cls-1" d="M458.23,365.39c6.33,8.23,9.49,17.64,9.49,28.21,0,15.6-5.37,27.82-16.12,36.66-10.75,8.84-25.83,13.26-45.24,13.26h-90.74v-183.3h87.88c18.72,0,33.41,4.16,44.07,12.48,10.66,8.32,15.99,20.02,15.99,35.1,0,10.75-2.82,19.72-8.45,26.91-5.63,7.19-13.13,12.09-22.49,14.69,10.75,2.43,19.28,7.76,25.61,15.99ZM366.58,333.01h25.74c12.83,0,19.24-5.29,19.24-15.86s-6.42-16.38-19.24-16.38h-25.74v32.24ZM415.46,386.31c0-5.54-1.69-9.79-5.07-12.74-3.38-2.95-8.19-4.42-14.43-4.42h-29.38v33.28h29.64c12.83,0,19.24-5.37,19.24-16.12Z"/>
    <path class="cls-1" d="M535.84,251.11v192.4h-50.96v-192.4h50.96Z"/>
    <path class="cls-1" d="M559.63,330.93c5.46-11.27,12.91-19.93,22.36-26,9.45-6.06,19.98-9.1,31.59-9.1,10.05,0,18.72,1.99,26,5.98,7.28,3.99,12.91,9.36,16.9,16.12v-20.28h50.96v145.86h-50.96v-20.28c-3.99,6.76-9.67,12.13-17.03,16.12-7.37,3.99-15.99,5.98-25.87,5.98-11.61,0-22.14-3.03-31.59-9.1-9.45-6.07-16.9-14.78-22.36-26.13-5.46-11.35-8.19-24.57-8.19-39.65s2.73-28.25,8.19-39.52ZM648.81,348.35c-5.11-5.37-11.4-8.06-18.85-8.06s-13.95,2.64-18.98,7.93c-5.03,5.29-7.54,12.7-7.54,22.23s2.51,16.77,7.54,22.23c5.03,5.46,11.35,8.19,18.98,8.19s13.74-2.69,18.85-8.06c5.11-5.37,7.67-12.83,7.67-22.36s-2.56-16.73-7.67-22.1Z"/>
    <path class="cls-1" d="M866.82,313.13c9.88,11.18,14.82,26.3,14.82,45.37v85.02h-50.96v-78.26c0-8.32-2.17-14.86-6.5-19.63-4.33-4.77-10.14-7.15-17.42-7.15s-13.61,2.38-17.94,7.15c-4.33,4.77-6.5,11.31-6.5,19.63v78.26h-50.96v-145.86h50.96v20.8c4.51-6.59,10.57-11.92,18.2-15.99,7.63-4.07,16.38-6.11,26.26-6.11,16.81,0,30.16,5.59,40.04,16.77Z"/>
    <path class="cls-1" d="M995.77,443.51l-40.3-59.8v59.8h-50.96v-192.4h50.96v103.74l40.3-57.2h61.1l-57.46,73.32,58.5,72.54h-62.14Z"/>
    <path class="cls-1" d="M1206.11,380.85h-96.46c.52,7.97,2.73,13.91,6.63,17.81s8.88,5.85,14.95,5.85c8.49,0,14.56-3.81,18.2-11.44h54.34c-2.25,10.05-6.63,19.03-13.13,26.91-6.5,7.89-14.69,14.08-24.57,18.59-9.88,4.51-20.8,6.76-32.76,6.76-14.39,0-27.17-3.03-38.35-9.1-11.18-6.07-19.93-14.73-26.26-26-6.33-11.27-9.49-24.53-9.49-39.78s3.12-28.47,9.36-39.65c6.24-11.18,14.95-19.8,26.13-25.87,11.18-6.06,24.05-9.1,38.61-9.1s27.12,2.95,38.22,8.84c11.09,5.89,19.76,14.35,26,25.35,6.24,11.01,9.36,23.96,9.36,38.87,0,3.99-.26,7.97-.78,11.96ZM1154.89,356.15c0-6.24-2.08-11.13-6.24-14.69-4.16-3.55-9.36-5.33-15.6-5.33s-11.35,1.69-15.34,5.07c-3.99,3.38-6.59,8.36-7.8,14.95h44.98Z"/>
    <path class="cls-1" d="M1308.55,400.09v43.42h-22.1c-37.27,0-55.9-18.46-55.9-55.38v-48.1h-17.94v-42.38h17.94v-35.36h51.22v35.36h26.52v42.38h-26.52v48.88c0,3.99.91,6.85,2.73,8.58,1.82,1.73,4.9,2.6,9.23,2.6h14.82Z"/>
    <path class="cls-1" d="M1343.39,430.13c-13.69-10.14-21.06-24.66-22.1-43.55h54.34c.52,6.41,2.43,11.09,5.72,14.04,3.29,2.95,7.54,4.42,12.74,4.42,4.68,0,8.54-1.17,11.57-3.51,3.03-2.34,4.55-5.59,4.55-9.75,0-5.37-2.51-9.53-7.54-12.48-5.03-2.95-13.17-6.24-24.44-9.88-11.96-3.98-21.62-7.84-28.99-11.57-7.37-3.72-13.78-9.19-19.24-16.38-5.46-7.19-8.19-16.6-8.19-28.21s2.95-21.88,8.84-30.29c5.89-8.41,14.04-14.78,24.44-19.11,10.4-4.33,22.19-6.5,35.36-6.5,21.32,0,38.35,4.98,51.09,14.95,12.74,9.97,19.54,23.96,20.41,41.99h-55.38c-.17-5.55-1.86-9.71-5.07-12.48-3.21-2.77-7.32-4.16-12.35-4.16-3.81,0-6.93,1.13-9.36,3.38-2.43,2.26-3.64,5.46-3.64,9.62,0,3.47,1.34,6.46,4.03,8.97,2.69,2.51,6.02,4.68,10.01,6.5,3.99,1.82,9.88,4.12,17.68,6.89,11.61,3.99,21.19,7.93,28.73,11.83s14.04,9.36,19.5,16.38,8.19,15.9,8.19,26.65-2.73,20.71-8.19,29.38c-5.46,8.67-13.35,15.52-23.66,20.54-10.31,5.03-22.49,7.54-36.53,7.54-21.32,0-38.83-5.07-52.52-15.21Z"/>
    <path class="cls-1" d="M1716.62,312.99c10.49,11.09,15.73,26.26,15.73,45.5v85.02h-50.96v-78.26c0-7.8-2.17-13.87-6.5-18.2-4.33-4.33-10.23-6.5-17.68-6.5s-13.35,2.17-17.68,6.5c-4.33,4.33-6.5,10.4-6.5,18.2v78.26h-50.96v-78.26c0-7.8-2.12-13.87-6.37-18.2-4.25-4.33-10.1-6.5-17.55-6.5s-13.61,2.17-17.94,6.5c-4.33,4.33-6.5,10.4-6.5,18.2v78.26h-50.96v-145.86h50.96v19.24c4.51-6.24,10.36-11.22,17.55-14.95,7.19-3.72,15.47-5.59,24.83-5.59,10.75,0,20.32,2.34,28.73,7.02,8.41,4.68,15.04,11.27,19.89,19.76,5.2-7.97,12.05-14.43,20.54-19.37,8.49-4.94,17.85-7.41,28.08-7.41,18.37,0,32.8,5.55,43.29,16.64Z"/>
    <path class="cls-1" d="M1758.99,276.73c-5.46-4.94-8.19-11.14-8.19-18.59s2.73-13.95,8.19-18.98c5.46-5.03,12.7-7.54,21.71-7.54s15.99,2.52,21.45,7.54c5.46,5.03,8.19,11.36,8.19,18.98s-2.73,13.65-8.19,18.59c-5.46,4.94-12.61,7.41-21.45,7.41s-16.25-2.47-21.71-7.41ZM1805.92,297.65v145.86h-50.96v-145.86h50.96Z"/>
    <path class="cls-1" d="M1915.9,400.09v43.42h-22.1c-37.27,0-55.9-18.46-55.9-55.38v-48.1h-17.94v-42.38h17.94v-35.36h51.22v35.36h26.52v42.38h-26.52v48.88c0,3.99.91,6.85,2.73,8.58,1.82,1.73,4.9,2.6,9.23,2.6h14.82Z"/>
    <path class="cls-1" d="M2069.69,313.13c9.79,11.18,14.69,26.3,14.69,45.37v85.02h-50.96v-78.26c0-8.32-2.17-14.86-6.5-19.63-4.33-4.77-10.14-7.15-17.42-7.15s-13.61,2.38-17.94,7.15c-4.33,4.77-6.5,11.31-6.5,19.63v78.26h-50.96v-192.4h50.96v67.34c4.51-6.59,10.62-11.92,18.33-15.99,7.71-4.07,16.6-6.11,26.65-6.11,16.64,0,29.86,5.59,39.65,16.77Z"/>
  </g>
  <g>
    <path class="cls-1" d="M331.14,566.99l29.06-80.03h11.82l29.43,80.03h-10.74l-16.97-47.48c-1.04-2.94-2.25-6.6-3.63-10.98-1.38-4.39-3.05-9.98-5.02-16.78h1.93c-1.93,6.88-3.61,12.54-5.02,17-1.42,4.46-2.59,8.05-3.52,10.77l-16.49,47.48h-10.85ZM345.75,544.65v-8.92h41.09v8.92h-41.09Z"/>
    <path class="cls-1" d="M440.45,566.99v-80.03h14.5l19.71,50.49c.46,1.18.99,2.66,1.58,4.43.59,1.77,1.22,3.7,1.88,5.77.66,2.08,1.3,4.14,1.91,6.2.61,2.06,1.15,3.97,1.61,5.72h-2.26c.5-1.65,1.06-3.48,1.67-5.51.61-2.02,1.24-4.08,1.91-6.18.66-2.1,1.3-4.06,1.91-5.88.61-1.83,1.15-3.35,1.61-4.57l19.44-50.49h14.56v80.03h-10.04v-45.71c0-1.65,0-3.53.03-5.64.02-2.11.05-4.33.11-6.66.05-2.33.11-4.69.16-7.09.05-2.4.1-4.73.13-6.98h.86c-.75,2.47-1.55,4.99-2.39,7.55-.84,2.56-1.67,5.03-2.47,7.41-.81,2.38-1.57,4.56-2.28,6.53-.72,1.97-1.33,3.6-1.83,4.89l-17.89,45.71h-8.86l-18.15-45.71c-.5-1.25-1.09-2.84-1.77-4.75-.68-1.92-1.42-4.05-2.23-6.39-.81-2.34-1.64-4.82-2.5-7.41-.86-2.6-1.74-5.2-2.63-7.81h.97c.07,2.01.13,4.17.19,6.5.05,2.33.1,4.68.13,7.06.04,2.38.07,4.67.11,6.88.04,2.2.05,4.18.05,5.93v45.71h-9.72Z"/>
    <path class="cls-1" d="M560.87,568.28c-5.44,0-10.21-1.29-14.31-3.87-4.1-2.58-7.3-6.19-9.59-10.85-2.29-4.65-3.44-10.06-3.44-16.22s1.15-11.74,3.44-16.41c2.29-4.67,5.49-8.3,9.59-10.88,4.1-2.58,8.87-3.87,14.31-3.87s10.28,1.29,14.39,3.87c4.12,2.58,7.32,6.2,9.61,10.88,2.29,4.67,3.44,10.14,3.44,16.41s-1.15,11.57-3.44,16.22c-2.29,4.66-5.5,8.27-9.61,10.85-4.12,2.58-8.92,3.87-14.39,3.87ZM560.87,559.63c4.05,0,7.38-1.04,9.99-3.12,2.61-2.08,4.55-4.81,5.8-8.19,1.25-3.38,1.88-7.04,1.88-10.98s-.63-7.67-1.88-11.09c-1.25-3.42-3.19-6.18-5.8-8.27-2.61-2.09-5.94-3.14-9.99-3.14s-7.3,1.05-9.88,3.14c-2.58,2.1-4.49,4.84-5.75,8.25-1.25,3.4-1.88,7.11-1.88,11.12s.63,7.6,1.88,10.98c1.25,3.38,3.17,6.11,5.75,8.19,2.58,2.08,5.87,3.12,9.88,3.12Z"/>
    <path class="cls-1" d="M622.69,568.28c-4.98,0-9.38-1.27-13.21-3.81-3.83-2.54-6.82-6.14-8.97-10.8-2.15-4.65-3.22-10.17-3.22-16.54s1.08-11.83,3.25-16.46c2.17-4.64,5.16-8.21,9-10.71,3.83-2.51,8.24-3.76,13.21-3.76,3.9,0,7,.64,9.29,1.93,2.29,1.29,4.06,2.75,5.29,4.38,1.24,1.63,2.18,2.98,2.82,4.06h.75v-29.59h9.67v80.03h-9.35v-9.29h-1.07c-.64,1.11-1.6,2.5-2.87,4.16-1.27,1.66-3.06,3.15-5.37,4.46-2.31,1.31-5.38,1.96-9.21,1.96ZM624.14,559.63c3.65,0,6.73-.96,9.24-2.87,2.51-1.92,4.4-4.57,5.69-7.98,1.29-3.4,1.93-7.32,1.93-11.76s-.64-8.32-1.91-11.63c-1.27-3.31-3.16-5.9-5.67-7.76-2.51-1.86-5.6-2.79-9.29-2.79s-6.96.99-9.48,2.95c-2.52,1.97-4.41,4.63-5.67,7.98-1.25,3.35-1.88,7.1-1.88,11.25s.64,7.99,1.91,11.41c1.27,3.42,3.18,6.14,5.72,8.16,2.54,2.02,5.67,3.03,9.4,3.03Z"/>
    <path class="cls-1" d="M690.58,568.28c-5.8,0-10.81-1.29-15.01-3.87-4.21-2.58-7.45-6.18-9.72-10.8-2.27-4.62-3.41-10.01-3.41-16.17s1.11-11.58,3.33-16.27c2.22-4.69,5.36-8.36,9.43-11.01,4.06-2.65,8.82-3.97,14.26-3.97,3.19,0,6.33.53,9.43,1.58,3.1,1.06,5.91,2.76,8.43,5.1,2.52,2.34,4.54,5.43,6.04,9.26,1.5,3.83,2.26,8.52,2.26,14.07v4.03h-46.62v-8.16h41.41l-4.51,3.01c0-3.94-.62-7.44-1.85-10.5-1.24-3.06-3.07-5.46-5.51-7.2-2.44-1.74-5.46-2.61-9.08-2.61s-6.71.89-9.29,2.66c-2.58,1.77-4.55,4.08-5.91,6.93-1.36,2.85-2.04,5.9-2.04,9.16v5.42c0,4.44.77,8.21,2.31,11.31,1.54,3.1,3.7,5.44,6.47,7.04,2.77,1.59,5.99,2.39,9.64,2.39,2.36,0,4.51-.34,6.45-1.02,1.93-.68,3.6-1.71,5-3.09,1.4-1.38,2.47-3.09,3.22-5.13l9.35,2.58c-.93,3.01-2.51,5.66-4.73,7.95-2.22,2.29-4.97,4.08-8.24,5.37s-6.97,1.93-11.09,1.93Z"/>
    <path class="cls-1" d="M727.27,566.99v-60.05h9.35v9.24h.64c1.11-3.04,3.09-5.49,5.94-7.33,2.85-1.84,6.06-2.77,9.64-2.77.72,0,1.57.02,2.55.05.98.04,1.76.07,2.34.11v9.72c-.29-.07-1-.18-2.15-.32-1.15-.14-2.36-.21-3.65-.21-2.87,0-5.43.6-7.71,1.8-2.27,1.2-4.06,2.85-5.34,4.94-1.29,2.1-1.93,4.5-1.93,7.22v37.6h-9.67Z"/>
    <path class="cls-1" d="M777.87,531v35.99h-9.67v-60.05h9.29l.05,14.56h-1.34c1.83-5.55,4.43-9.49,7.81-11.82,3.38-2.33,7.35-3.49,11.9-3.49,4.05,0,7.59.83,10.63,2.5,3.04,1.66,5.42,4.17,7.12,7.52,1.7,3.35,2.55,7.56,2.55,12.65v38.13h-9.67v-37.33c0-4.62-1.21-8.24-3.63-10.85-2.42-2.61-5.72-3.92-9.91-3.92-2.87,0-5.44.63-7.73,1.88-2.29,1.25-4.1,3.08-5.42,5.48-1.33,2.4-1.99,5.32-1.99,8.75Z"/>
    <path class="cls-1" d="M856.51,495.98v-9.02h60.48v9.02h-25.08v71.01h-10.21v-71.01h-25.19Z"/>
    <path class="cls-1" d="M944.38,568.28c-5.44,0-10.21-1.29-14.31-3.87-4.1-2.58-7.3-6.19-9.59-10.85-2.29-4.65-3.44-10.06-3.44-16.22s1.15-11.74,3.44-16.41c2.29-4.67,5.49-8.3,9.59-10.88,4.1-2.58,8.87-3.87,14.31-3.87s10.28,1.29,14.39,3.87c4.12,2.58,7.32,6.2,9.61,10.88,2.29,4.67,3.44,10.14,3.44,16.41s-1.15,11.57-3.44,16.22c-2.29,4.66-5.5,8.27-9.61,10.85-4.12,2.58-8.92,3.87-14.39,3.87ZM944.38,559.63c4.05,0,7.38-1.04,9.99-3.12,2.61-2.08,4.55-4.81,5.8-8.19,1.25-3.38,1.88-7.04,1.88-10.98s-.63-7.67-1.88-11.09c-1.25-3.42-3.19-6.18-5.8-8.27-2.61-2.09-5.94-3.14-9.99-3.14s-7.3,1.05-9.88,3.14c-2.58,2.1-4.49,4.84-5.75,8.25-1.25,3.4-1.88,7.11-1.88,11.12s.63,7.6,1.88,10.98c1.25,3.38,3.17,6.11,5.75,8.19,2.58,2.08,5.87,3.12,9.88,3.12Z"/>
    <path class="cls-1" d="M1008.14,568.28c-5.44,0-10.21-1.29-14.31-3.87-4.1-2.58-7.3-6.19-9.59-10.85-2.29-4.65-3.44-10.06-3.44-16.22s1.15-11.74,3.44-16.41c2.29-4.67,5.49-8.3,9.59-10.88,4.1-2.58,8.87-3.87,14.31-3.87s10.28,1.29,14.39,3.87c4.12,2.58,7.32,6.2,9.61,10.88,2.29,4.67,3.44,10.14,3.44,16.41s-1.15,11.57-3.44,16.22c-2.29,4.66-5.5,8.27-9.61,10.85-4.12,2.58-8.92,3.87-14.39,3.87ZM1008.14,559.63c4.05,0,7.38-1.04,9.99-3.12,2.61-2.08,4.55-4.81,5.8-8.19,1.25-3.38,1.88-7.04,1.88-10.98s-.63-7.67-1.88-11.09c-1.25-3.42-3.19-6.18-5.8-8.27-2.61-2.09-5.94-3.14-9.99-3.14s-7.3,1.05-9.88,3.14c-2.58,2.1-4.49,4.84-5.75,8.25-1.25,3.4-1.88,7.11-1.88,11.12s.63,7.6,1.88,10.98c1.25,3.38,3.17,6.11,5.75,8.19,2.58,2.08,5.87,3.12,9.88,3.12Z"/>
    <path class="cls-1" d="M1057.12,486.96v80.03h-9.67v-80.03h9.67Z"/>
    <path class="cls-1" d="M1101.81,566.99v-80.03h48.39v9.02h-38.19v27.39h34.54v9.02h-34.54v34.59h-10.21Z"/>
    <path class="cls-1" d="M1183.46,568.28c-5.44,0-10.21-1.29-14.31-3.87-4.1-2.58-7.3-6.19-9.59-10.85-2.29-4.65-3.44-10.06-3.44-16.22s1.15-11.74,3.44-16.41c2.29-4.67,5.49-8.3,9.59-10.88,4.1-2.58,8.87-3.87,14.31-3.87s10.28,1.29,14.39,3.87c4.12,2.58,7.32,6.2,9.61,10.88,2.29,4.67,3.44,10.14,3.44,16.41s-1.15,11.57-3.44,16.22c-2.29,4.66-5.5,8.27-9.61,10.85-4.12,2.58-8.92,3.87-14.39,3.87ZM1183.46,559.63c4.05,0,7.38-1.04,9.99-3.12,2.61-2.08,4.55-4.81,5.8-8.19,1.25-3.38,1.88-7.04,1.88-10.98s-.63-7.67-1.88-11.09c-1.25-3.42-3.19-6.18-5.8-8.27-2.61-2.09-5.94-3.14-9.99-3.14s-7.3,1.05-9.88,3.14c-2.58,2.1-4.49,4.84-5.75,8.25-1.25,3.4-1.88,7.11-1.88,11.12s.63,7.6,1.88,10.98c1.25,3.38,3.17,6.11,5.75,8.19,2.58,2.08,5.87,3.12,9.88,3.12Z"/>
    <path class="cls-1" d="M1222.78,566.99v-60.05h9.35v9.24h.64c1.11-3.04,3.09-5.49,5.94-7.33,2.85-1.84,6.06-2.77,9.64-2.77.72,0,1.57.02,2.55.05.98.04,1.76.07,2.34.11v9.72c-.29-.07-1-.18-2.15-.32-1.15-.14-2.36-.21-3.65-.21-2.87,0-5.43.6-7.71,1.8-2.27,1.2-4.06,2.85-5.34,4.94-1.29,2.1-1.93,4.5-1.93,7.22v37.6h-9.67Z"/>
    <path class="cls-1" d="M1291.91,566.99v-80.03h14.5l19.71,50.49c.46,1.18.99,2.66,1.58,4.43.59,1.77,1.22,3.7,1.88,5.77.66,2.08,1.3,4.14,1.91,6.2.61,2.06,1.15,3.97,1.61,5.72h-2.26c.5-1.65,1.06-3.48,1.67-5.51.61-2.02,1.24-4.08,1.91-6.18.66-2.1,1.3-4.06,1.91-5.88.61-1.83,1.15-3.35,1.61-4.57l19.44-50.49h14.56v80.03h-10.04v-45.71c0-1.65,0-3.53.03-5.64.02-2.11.05-4.33.11-6.66.05-2.33.11-4.69.16-7.09.05-2.4.1-4.73.13-6.98h.86c-.75,2.47-1.55,4.99-2.39,7.55-.84,2.56-1.67,5.03-2.47,7.41-.81,2.38-1.57,4.56-2.28,6.53-.72,1.97-1.33,3.6-1.83,4.89l-17.89,45.71h-8.86l-18.15-45.71c-.5-1.25-1.09-2.84-1.77-4.75-.68-1.92-1.42-4.05-2.23-6.39-.81-2.34-1.64-4.82-2.5-7.41-.86-2.6-1.74-5.2-2.63-7.81h.97c.07,2.01.13,4.17.19,6.5.05,2.33.1,4.68.13,7.06.04,2.38.07,4.67.11,6.88.04,2.2.05,4.18.05,5.93v45.71h-9.72Z"/>
    <path class="cls-1" d="M1412.33,568.28c-5.44,0-10.21-1.29-14.31-3.87-4.1-2.58-7.3-6.19-9.59-10.85-2.29-4.65-3.44-10.06-3.44-16.22s1.15-11.74,3.44-16.41c2.29-4.67,5.49-8.3,9.59-10.88,4.1-2.58,8.87-3.87,14.31-3.87s10.28,1.29,14.39,3.87c4.12,2.58,7.32,6.2,9.61,10.88,2.29,4.67,3.44,10.14,3.44,16.41s-1.15,11.57-3.44,16.22c-2.29,4.66-5.5,8.27-9.61,10.85-4.12,2.58-8.92,3.87-14.39,3.87ZM1412.33,559.63c4.05,0,7.38-1.04,9.99-3.12,2.61-2.08,4.55-4.81,5.8-8.19,1.25-3.38,1.88-7.04,1.88-10.98s-.63-7.67-1.88-11.09c-1.25-3.42-3.19-6.18-5.8-8.27-2.61-2.09-5.94-3.14-9.99-3.14s-7.3,1.05-9.88,3.14c-2.58,2.1-4.49,4.84-5.75,8.25-1.25,3.4-1.88,7.11-1.88,11.12s.63,7.6,1.88,10.98c1.25,3.38,3.17,6.11,5.75,8.19,2.58,2.08,5.87,3.12,9.88,3.12Z"/>
    <path class="cls-1" d="M1474.15,568.28c-4.98,0-9.38-1.27-13.21-3.81-3.83-2.54-6.82-6.14-8.97-10.8-2.15-4.65-3.22-10.17-3.22-16.54s1.08-11.83,3.25-16.46c2.17-4.64,5.16-8.21,9-10.71,3.83-2.51,8.24-3.76,13.21-3.76,3.9,0,7,.64,9.29,1.93,2.29,1.29,4.06,2.75,5.29,4.38,1.24,1.63,2.18,2.98,2.82,4.06h.75v-29.59h9.67v80.03h-9.35v-9.29h-1.07c-.64,1.11-1.6,2.5-2.87,4.16-1.27,1.66-3.06,3.15-5.37,4.46-2.31,1.31-5.38,1.96-9.21,1.96ZM1475.6,559.63c3.65,0,6.73-.96,9.24-2.87,2.51-1.92,4.4-4.57,5.69-7.98,1.29-3.4,1.93-7.32,1.93-11.76s-.64-8.32-1.91-11.63c-1.27-3.31-3.16-5.9-5.67-7.76-2.51-1.86-5.6-2.79-9.29-2.79s-6.96.99-9.48,2.95c-2.52,1.97-4.41,4.63-5.67,7.98-1.25,3.35-1.88,7.1-1.88,11.25s.64,7.99,1.91,11.41c1.27,3.42,3.18,6.14,5.72,8.16,2.54,2.02,5.67,3.03,9.4,3.03Z"/>
    <path class="cls-1" d="M1542.04,568.28c-5.8,0-10.81-1.29-15.01-3.87-4.21-2.58-7.45-6.18-9.72-10.8-2.27-4.62-3.41-10.01-3.41-16.17s1.11-11.58,3.33-16.27c2.22-4.69,5.36-8.36,9.43-11.01,4.06-2.65,8.82-3.97,14.26-3.97,3.19,0,6.33.53,9.43,1.58,3.1,1.06,5.91,2.76,8.43,5.1,2.52,2.34,4.54,5.43,6.04,9.26,1.5,3.83,2.26,8.52,2.26,14.07v4.03h-46.62v-8.16h41.41l-4.51,3.01c0-3.94-.62-7.44-1.85-10.5-1.24-3.06-3.07-5.46-5.51-7.2-2.44-1.74-5.46-2.61-9.08-2.61s-6.71.89-9.29,2.66c-2.58,1.77-4.55,4.08-5.91,6.93-1.36,2.85-2.04,5.9-2.04,9.16v5.42c0,4.44.77,8.21,2.31,11.31,1.54,3.1,3.7,5.44,6.47,7.04,2.77,1.59,5.99,2.39,9.64,2.39,2.36,0,4.51-.34,6.45-1.02,1.93-.68,3.6-1.71,5-3.09,1.4-1.38,2.47-3.09,3.22-5.13l9.35,2.58c-.93,3.01-2.51,5.66-4.73,7.95-2.22,2.29-4.97,4.08-8.24,5.37s-6.97,1.93-11.09,1.93Z"/>
    <path class="cls-1" d="M1578.73,566.99v-60.05h9.35v9.24h.64c1.11-3.04,3.09-5.49,5.94-7.33,2.85-1.84,6.06-2.77,9.64-2.77.72,0,1.57.02,2.55.05.98.04,1.76.07,2.34.11v9.72c-.29-.07-1-.18-2.15-.32-1.15-.14-2.36-.21-3.65-.21-2.87,0-5.43.6-7.71,1.8-2.27,1.2-4.06,2.85-5.34,4.94-1.29,2.1-1.93,4.5-1.93,7.22v37.6h-9.67Z"/>
    <path class="cls-1" d="M1629.33,531v35.99h-9.67v-60.05h9.29l.05,14.56h-1.34c1.83-5.55,4.43-9.49,7.81-11.82,3.38-2.33,7.35-3.49,11.9-3.49,4.05,0,7.59.83,10.63,2.5,3.04,1.66,5.42,4.17,7.12,7.52,1.7,3.35,2.55,7.56,2.55,12.65v38.13h-9.67v-37.33c0-4.62-1.21-8.24-3.63-10.85-2.42-2.61-5.72-3.92-9.91-3.92-2.87,0-5.44.63-7.73,1.88-2.29,1.25-4.1,3.08-5.42,5.48-1.33,2.4-1.99,5.32-1.99,8.75Z"/>
    <path class="cls-1" d="M1712.37,566.99v-80.03h14.5l19.71,50.49c.46,1.18.99,2.66,1.58,4.43.59,1.77,1.22,3.7,1.88,5.77.66,2.08,1.3,4.14,1.91,6.2.61,2.06,1.15,3.97,1.61,5.72h-2.26c.5-1.65,1.06-3.48,1.67-5.51.61-2.02,1.24-4.08,1.91-6.18.66-2.1,1.3-4.06,1.91-5.88.61-1.83,1.15-3.35,1.61-4.57l19.44-50.49h14.56v80.03h-10.04v-45.71c0-1.65,0-3.53.03-5.64.02-2.11.05-4.33.11-6.66.05-2.33.11-4.69.16-7.09.05-2.4.1-4.73.13-6.98h.86c-.75,2.47-1.55,4.99-2.39,7.55-.84,2.56-1.67,5.03-2.47,7.41-.81,2.38-1.57,4.56-2.28,6.53-.72,1.97-1.33,3.6-1.83,4.89l-17.89,45.71h-8.86l-18.15-45.71c-.5-1.25-1.09-2.84-1.77-4.75-.68-1.92-1.42-4.05-2.23-6.39-.81-2.34-1.64-4.82-2.5-7.41-.86-2.6-1.74-5.2-2.63-7.81h.97c.07,2.01.13,4.17.19,6.5.05,2.33.1,4.68.13,7.06.04,2.38.07,4.67.11,6.88.04,2.2.05,4.18.05,5.93v45.71h-9.72Z"/>
    <path class="cls-1" d="M1825.17,568.39c-3.8,0-7.24-.72-10.34-2.15-3.1-1.43-5.56-3.53-7.39-6.28-1.83-2.76-2.74-6.1-2.74-10.04,0-3.44.68-6.23,2.04-8.38,1.36-2.15,3.18-3.84,5.45-5.08,2.27-1.23,4.79-2.16,7.55-2.77,2.76-.61,5.53-1.09,8.33-1.45,3.58-.46,6.5-.82,8.75-1.07,2.26-.25,3.93-.68,5.02-1.29,1.09-.61,1.64-1.65,1.64-3.12v-.32c0-2.51-.47-4.63-1.4-6.36-.93-1.74-2.33-3.07-4.19-4-1.86-.93-4.19-1.4-6.98-1.4s-5.32.45-7.36,1.34c-2.04.9-3.7,2.01-4.97,3.36-1.27,1.34-2.23,2.71-2.87,4.11l-9.29-3.06c1.54-3.65,3.62-6.51,6.23-8.57,2.61-2.06,5.5-3.52,8.65-4.38,3.15-.86,6.27-1.29,9.35-1.29,2,0,4.29.24,6.85.72,2.56.48,5.03,1.44,7.41,2.87,2.38,1.43,4.35,3.55,5.91,6.36,1.56,2.81,2.34,6.56,2.34,11.25v39.58h-9.51v-8.16h-.64c-.68,1.4-1.77,2.84-3.28,4.32-1.5,1.49-3.46,2.73-5.85,3.73-2.4,1-5.3,1.5-8.7,1.5ZM1826.83,559.85c3.58,0,6.61-.7,9.08-2.09s4.35-3.21,5.64-5.45c1.29-2.24,1.93-4.57,1.93-7.01v-8.33c-.39.47-1.25.89-2.58,1.26-1.33.38-2.84.71-4.54.99-1.7.29-3.35.53-4.94.73-1.59.2-2.86.35-3.79.46-2.33.29-4.5.78-6.53,1.48-2.02.7-3.64,1.72-4.86,3.06-1.22,1.34-1.83,3.16-1.83,5.45,0,2.08.54,3.81,1.61,5.21s2.54,2.45,4.4,3.17c1.86.72,3.99,1.07,6.39,1.07Z"/>
    <path class="cls-1" d="M1867.92,566.99v-80.03h9.67v80.03h-9.67ZM1877,545.4v-11.98h1.77l25.67-26.48h11.98l-27.77,28.52h-1.07l-10.58,9.94ZM1905.9,566.99l-22.99-29.38,6.88-6.82,28.52,36.2h-12.41Z"/>
    <path class="cls-1" d="M1948.87,568.28c-5.8,0-10.81-1.29-15.01-3.87-4.21-2.58-7.45-6.18-9.72-10.8-2.27-4.62-3.41-10.01-3.41-16.17s1.11-11.58,3.33-16.27c2.22-4.69,5.36-8.36,9.43-11.01,4.06-2.65,8.82-3.97,14.26-3.97,3.19,0,6.33.53,9.43,1.58,3.1,1.06,5.91,2.76,8.43,5.1,2.52,2.34,4.54,5.43,6.04,9.26,1.5,3.83,2.26,8.52,2.26,14.07v4.03h-46.62v-8.16h41.41l-4.51,3.01c0-3.94-.62-7.44-1.85-10.5-1.24-3.06-3.07-5.46-5.51-7.2-2.44-1.74-5.46-2.61-9.08-2.61s-6.71.89-9.29,2.66c-2.58,1.77-4.55,4.08-5.91,6.93-1.36,2.85-2.04,5.9-2.04,9.16v5.42c0,4.44.77,8.21,2.31,11.31,1.54,3.1,3.7,5.44,6.47,7.04,2.77,1.59,5.99,2.39,9.64,2.39,2.36,0,4.51-.34,6.45-1.02,1.93-.68,3.6-1.71,5-3.09,1.4-1.38,2.47-3.09,3.22-5.13l9.35,2.58c-.93,3.01-2.51,5.66-4.73,7.95-2.22,2.29-4.97,4.08-8.24,5.37s-6.97,1.93-11.09,1.93Z"/>
    <path class="cls-1" d="M1985.55,566.99v-60.05h9.35v9.24h.64c1.11-3.04,3.09-5.49,5.94-7.33,2.85-1.84,6.06-2.77,9.64-2.77.72,0,1.57.02,2.55.05.98.04,1.76.07,2.34.11v9.72c-.29-.07-1-.18-2.15-.32-1.15-.14-2.36-.21-3.65-.21-2.87,0-5.43.6-7.71,1.8-2.27,1.2-4.06,2.85-5.34,4.94-1.29,2.1-1.93,4.5-1.93,7.22v37.6h-9.67Z"/>
    <path class="cls-1" d="M2045.17,568.28c-4.12,0-7.78-.6-10.98-1.8-3.21-1.2-5.85-2.98-7.92-5.34-2.08-2.36-3.47-5.26-4.19-8.7l9.18-2.2c.86,3.29,2.48,5.71,4.86,7.25,2.38,1.54,5.36,2.31,8.94,2.31,4.19,0,7.53-.89,10.02-2.69,2.49-1.79,3.73-3.92,3.73-6.39,0-2.08-.73-3.8-2.18-5.18-1.45-1.38-3.66-2.41-6.63-3.09l-9.99-2.36c-5.44-1.29-9.49-3.29-12.14-5.99-2.65-2.7-3.97-6.17-3.97-10.39,0-3.44.97-6.47,2.9-9.1,1.93-2.63,4.57-4.69,7.92-6.18,3.35-1.49,7.15-2.23,11.41-2.23s7.62.62,10.5,1.85c2.88,1.23,5.23,2.94,7.04,5.1,1.81,2.17,3.16,4.67,4.06,7.49l-8.75,2.26c-.82-2.15-2.19-4.1-4.11-5.85-1.92-1.75-4.81-2.63-8.67-2.63-3.58,0-6.56.82-8.94,2.47-2.38,1.65-3.57,3.72-3.57,6.23,0,2.22.81,4,2.42,5.34,1.61,1.34,4.17,2.43,7.68,3.25l9.08,2.15c5.44,1.29,9.47,3.29,12.08,5.99,2.61,2.7,3.92,6.11,3.92,10.23,0,3.51-.99,6.63-2.98,9.37-1.99,2.74-4.76,4.9-8.33,6.47-3.56,1.58-7.69,2.36-12.38,2.36Z"/>
  </g>
</svg>